<svg width="56" height="56" viewBox="0 0 56 56" fill="none" xmlns="http://www.w3.org/2000/svg">
<circle cx="28" cy="28" r="27.5" stroke="#14142B"/>
<g clip-path="url(#clip0_536_110)">
<path d="M28 42C35.732 42 42 35.732 42 28C42 20.268 35.732 14 28 14C20.268 14 14 20.268 14 28C14 35.732 20.268 42 28 42Z" fill="#14142B"/>
<path d="M23.8907 21.6562C24.4944 21.6562 25.0454 21.71 25.5438 21.8164C26.0422 21.9228 26.4678 22.0975 26.8229 22.3406C27.1779 22.5836 27.4534 22.9062 27.6494 23.3094C27.8454 23.7126 27.9429 24.2098 27.9429 24.8023C27.9429 25.4418 27.7973 25.9749 27.5072 26.4017C27.2171 26.8284 26.787 27.1778 26.2192 27.45C27.0009 27.6751 27.5845 28.0693 27.9697 28.6316C28.355 29.1938 28.5476 29.8725 28.5476 30.6666C28.5476 31.3061 28.4233 31.8605 28.1747 32.3287C27.9261 32.7968 27.5912 33.1787 27.1701 33.4744C26.7489 33.7712 26.2696 33.9896 25.7309 34.1319C25.1888 34.2741 24.6299 34.3458 24.0699 34.3447H17.92V21.6562H23.8907ZM23.5357 26.7914C24.033 26.7914 24.4418 26.6727 24.7621 26.4364C25.0824 26.1989 25.2426 25.8148 25.2414 25.2817C25.2414 24.986 25.1877 24.743 25.0813 24.5537C24.9749 24.3644 24.8326 24.2154 24.6546 24.109C24.4765 24.0026 24.2726 23.9287 24.0419 23.8873C23.8045 23.8458 23.5637 23.8246 23.3218 23.8257H20.7111V26.7937L23.5357 26.7914ZM23.6958 32.1752C23.959 32.1764 24.2211 32.1495 24.4776 32.0957C24.7262 32.042 24.9458 31.9535 25.135 31.8292C25.3243 31.7048 25.4755 31.5357 25.5886 31.3229C25.7006 31.1101 25.7577 30.8368 25.7577 30.5053C25.7577 29.8546 25.5741 29.3887 25.2067 29.1109C24.8394 28.8321 24.3533 28.6932 23.7496 28.6932H20.7111V32.1764L23.6958 32.1752ZM32.0577 31.9087C32.4363 32.276 32.9817 32.4597 33.6929 32.4597C34.2025 32.4597 34.6404 32.332 35.0078 32.0778C35.3751 31.8236 35.6002 31.5536 35.6831 31.2692H37.9041C37.549 32.3712 37.0036 33.1586 36.2689 33.6323C35.5342 34.1061 34.646 34.3435 33.6033 34.3435C32.8809 34.3435 32.2291 34.2282 31.6489 33.9975C31.0688 33.7667 30.5771 33.4375 30.1739 33.0107C29.7707 32.584 29.4593 32.0756 29.2409 31.4831C29.0225 30.8906 28.9128 30.2388 28.9128 29.5287C28.9128 28.8421 29.0248 28.2026 29.2499 27.6101C29.475 27.0177 29.7953 26.5058 30.2097 26.0735C30.6241 25.6412 31.1192 25.3007 31.6937 25.0521C32.2683 24.8034 32.9055 24.6791 33.6044 24.6791C34.3862 24.6791 35.0671 24.8303 35.6484 25.1327C36.2286 25.4351 36.7057 25.8405 37.0786 26.3501C37.4516 26.8597 37.7215 27.4399 37.8873 28.0917C38.053 28.7436 38.1124 29.4245 38.0653 30.1357H31.4372C31.4719 30.95 31.6791 31.5424 32.0577 31.9087ZM34.9103 27.0759C34.6079 26.7444 34.1487 26.5786 33.5327 26.5786C33.1295 26.5786 32.7947 26.6469 32.5292 26.7825C32.2627 26.9191 32.0499 27.0871 31.8897 27.2887C31.7295 27.4903 31.6175 27.7031 31.5526 27.9282C31.4876 28.1533 31.4484 28.3549 31.4372 28.5319H35.542C35.4222 27.8935 35.2116 27.4074 34.9103 27.0759ZM31.0049 22.3002H36.1334V23.7226H31.0049V22.3002Z" fill="white"/>
</g>
<defs>
<clipPath id="clip0_536_110">
<rect width="28" height="28" fill="white" transform="translate(14 14)"/>
</clipPath>
</defs>
</svg>
