<svg width="56" height="56" viewBox="0 0 56 56" fill="none" xmlns="http://www.w3.org/2000/svg">
<path fill-rule="evenodd" clip-rule="evenodd" d="M28 14C20.2712 14 14 20.2712 14 28C14 35.7289 20.2712 42 28 42C35.7136 42 42 35.7289 42 28C42 20.2712 35.7136 14 28 14ZM37.2473 20.4534C38.9176 22.4881 39.9198 25.0846 39.9501 27.8937C39.5553 27.8178 35.6073 27.013 31.6291 27.5141C31.538 27.3167 31.462 27.1041 31.3709 26.8916C31.128 26.3146 30.8547 25.7224 30.5813 25.1605C34.9848 23.3688 36.9891 20.7874 37.2473 20.4534ZM28 16.0651C31.0369 16.0651 33.8156 17.2039 35.9263 19.0716C35.7136 19.3753 33.9067 21.7896 29.6551 23.3839C27.6963 19.7852 25.525 16.8395 25.1909 16.3839C26.0867 16.1714 27.0282 16.0651 28 16.0651ZM22.9133 17.1887C23.2321 17.6139 25.3579 20.5748 27.3471 24.0976C21.7592 25.5857 16.8243 25.5553 16.2928 25.5553C17.0672 21.8503 19.5727 18.7679 22.9133 17.1887ZM16.0347 28.0152C16.0347 27.8937 16.0347 27.7722 16.0347 27.6508C16.551 27.6659 22.3514 27.7419 28.3189 25.9501C28.6682 26.6182 28.987 27.3015 29.2907 27.9848C29.1388 28.0304 28.9718 28.0759 28.82 28.1214C22.6551 30.1106 19.3753 35.5466 19.102 36.0021C17.2039 33.8916 16.0347 31.0825 16.0347 28.0152ZM28 39.9653C25.2364 39.9653 22.6855 39.0239 20.6659 37.4447C20.8785 37.0044 23.308 32.3276 30.0499 29.974C30.0802 29.9588 30.0955 29.9588 30.1258 29.9436C31.8112 34.3015 32.4946 37.9609 32.6768 39.0086C31.2343 39.6312 29.6551 39.9653 28 39.9653ZM34.6659 37.9154C34.5445 37.1865 33.9067 33.6942 32.3427 29.3969C36.0933 28.8047 39.3731 29.7766 39.7831 29.9133C39.2668 33.2386 37.3536 36.1084 34.6659 37.9154Z" fill="#14142B"/>
<circle cx="28" cy="28" r="27.5" stroke="#14142B"/>
</svg>
