<svg width="56" height="56" viewBox="0 0 56 56" fill="none" xmlns="http://www.w3.org/2000/svg">
<circle cx="28" cy="28" r="27.5" stroke="#14142B"/>
<path d="M28.3544 14C20.4277 14 14 20.4266 14 28.3544C14 34.6967 18.113 40.0773 23.8164 41.9753C24.5338 42.1082 24.7972 41.664 24.7972 41.2848C24.7972 40.9425 24.7838 39.8117 24.7778 38.6123C20.7842 39.4806 19.9416 36.9186 19.9416 36.9186C19.2886 35.2594 18.3478 34.8184 18.3478 34.8184C17.0455 33.9274 18.446 33.9456 18.446 33.9456C19.8874 34.047 20.6464 35.4249 20.6464 35.4249C21.9267 37.6194 24.0045 36.9849 24.8236 36.6183C24.9524 35.6904 25.3244 35.0572 25.7349 34.6988C22.5467 34.3357 19.195 33.1049 19.195 27.6047C19.195 26.0376 19.7557 24.757 20.674 23.7518C20.525 23.3902 20.0337 21.9303 20.8131 19.9531C20.8131 19.9531 22.0184 19.5673 24.7615 21.4245C25.9065 21.1063 27.1345 20.9469 28.3544 20.9415C29.5743 20.9469 30.8032 21.1063 31.9504 21.4245C34.6902 19.5673 35.8939 19.9531 35.8939 19.9531C36.6752 21.9303 36.1837 23.3902 36.0347 23.7518C36.955 24.757 37.5119 26.0375 37.5119 27.6047C37.5119 33.118 34.1539 34.332 30.9576 34.6873C31.4724 35.1328 31.9311 36.0064 31.9311 37.3455C31.9311 39.2661 31.9145 40.812 31.9145 41.2848C31.9145 41.6668 32.1729 42.1144 32.9006 41.9734C38.6009 40.0732 42.7087 34.6945 42.7087 28.3544C42.7087 20.4266 36.2819 14 28.3544 14Z" fill="#161614"/>
<path d="M19.3763 34.4481C19.3448 34.5194 19.2324 34.5408 19.1303 34.4919C19.0262 34.4451 18.9676 34.3478 19.0014 34.2762C19.0324 34.2028 19.1447 34.1823 19.2486 34.2316C19.353 34.2784 19.4124 34.3765 19.3763 34.4481ZM20.0824 35.0781C20.0139 35.1416 19.8801 35.1121 19.7892 35.0118C19.6953 34.9117 19.6778 34.778 19.7472 34.7135C19.8178 34.6501 19.9476 34.6797 20.0417 34.7799C20.1356 34.8811 20.1539 35.0141 20.0823 35.0782M20.5668 35.8842C20.4788 35.9453 20.3349 35.888 20.2461 35.7603C20.1581 35.6328 20.1581 35.4797 20.248 35.4183C20.3371 35.357 20.4788 35.4121 20.5688 35.5388C20.6566 35.6686 20.6566 35.8217 20.5667 35.8843M21.3859 36.8178C21.3072 36.9045 21.1397 36.8813 21.017 36.7629C20.8916 36.6471 20.8566 36.4829 20.9355 36.3961C21.0151 36.3092 21.1836 36.3336 21.3072 36.451C21.4319 36.5665 21.4698 36.732 21.3859 36.8178ZM22.4446 37.133C22.4101 37.2454 22.2486 37.2965 22.0861 37.2488C21.9237 37.1996 21.8175 37.0678 21.8502 36.9542C21.884 36.8411 22.0461 36.7879 22.2099 36.839C22.372 36.8879 22.4784 37.0186 22.4446 37.133ZM23.6497 37.2667C23.6537 37.3851 23.5158 37.4833 23.3451 37.4854C23.1735 37.4891 23.0347 37.3933 23.0329 37.2769C23.0329 37.1573 23.1676 37.0601 23.3392 37.0573C23.5099 37.0539 23.6497 37.149 23.6497 37.2667ZM24.8333 37.2213C24.8538 37.3368 24.7352 37.4555 24.5657 37.487C24.3991 37.5174 24.2449 37.4461 24.2236 37.3316C24.2029 37.2132 24.3238 37.0946 24.4901 37.0639C24.6598 37.0344 24.8117 37.1039 24.8333 37.2213Z" fill="#161614"/>
</svg>
