<svg width="15" height="17" viewBox="0 0 15 17" fill="none" xmlns="http://www.w3.org/2000/svg">
<path d="M8.76562 16.0391C8.53125 15.1016 8.35938 14.1094 8.25 13.0625C8.15625 12 8.09375 11.0078 8.0625 10.0859C7.92188 10.1641 7.80469 10.2891 7.71094 10.4609C7.61719 10.6172 7.53125 10.7891 7.45312 10.9766C7.39062 11.1484 7.32031 11.3281 7.24219 11.5156C7.16406 11.6875 7.07031 11.8359 6.96094 11.9609C6.60156 12.3672 6.21094 12.7422 5.78906 13.0859C5.36719 13.4141 4.86719 13.5781 4.28906 13.5781C3.82031 13.5781 3.35156 13.4766 2.88281 13.2734C2.42969 13.0703 2.01562 12.8047 1.64062 12.4766C1.28125 12.1328 0.984375 11.7422 0.75 11.3047C0.53125 10.8672 0.421875 10.4062 0.421875 9.92188C0.421875 9.25 0.53125 8.57031 0.75 7.88281C0.96875 7.17969 1.23438 6.53125 1.54688 5.9375C1.60938 5.82812 1.70312 5.67188 1.82812 5.46875C1.96875 5.25 2.10938 5.03125 2.25 4.8125C2.40625 4.59375 2.54688 4.39844 2.67188 4.22656C2.79688 4.03906 2.88281 3.92188 2.92969 3.875L5.48438 1.17969C5.82812 0.820312 6.25781 0.5625 6.77344 0.40625C7.30469 0.234375 7.79688 0.132812 8.25 0.101562C8.48438 0.0703125 8.67969 0.109375 8.83594 0.21875C8.99219 0.3125 9.07031 0.476562 9.07031 0.710938C9.07031 0.898438 8.99219 1.04688 8.83594 1.15625C8.69531 1.25 8.52344 1.32812 8.32031 1.39062C8.11719 1.45312 7.90625 1.51562 7.6875 1.57812C7.46875 1.625 7.29688 1.6875 7.17188 1.76562C6.34375 2.4375 5.59375 3.19531 4.92188 4.03906C4.25 4.86719 3.64844 5.73438 3.11719 6.64062C2.94531 7.1875 2.76562 7.71094 2.57812 8.21094C2.39062 8.71094 2.29688 9.25781 2.29688 9.85156C2.29688 9.89844 2.29688 10.0078 2.29688 10.1797C2.3125 10.3359 2.32031 10.4375 2.32031 10.4844C2.47656 10.8594 2.71094 11.2031 3.02344 11.5156C3.35156 11.8281 3.73438 11.9844 4.17188 11.9844C4.39062 11.9844 4.61719 11.9141 4.85156 11.7734C5.08594 11.6328 5.26562 11.4609 5.39062 11.2578C5.45312 11.1797 5.5625 11.0234 5.71875 10.7891C5.875 10.5547 6.03125 10.3047 6.1875 10.0391C6.35938 9.77344 6.51562 9.52344 6.65625 9.28906C6.8125 9.05469 6.91406 8.89062 6.96094 8.79688C7.00781 8.70312 7.07031 8.58594 7.14844 8.44531C7.24219 8.28906 7.32031 8.14062 7.38281 8C7.46094 7.85938 7.52344 7.73438 7.57031 7.625C7.63281 7.5 7.66406 7.42969 7.66406 7.41406V7.32031C7.44531 7.38281 7.22656 7.4375 7.00781 7.48438C6.78906 7.51562 6.5625 7.53125 6.32812 7.53125C6.1875 7.53125 6.03125 7.52344 5.85938 7.50781C5.70312 7.47656 5.54688 7.42969 5.39062 7.36719C5.25 7.30469 5.125 7.21875 5.01562 7.10938C4.92188 7 4.875 6.85156 4.875 6.66406C4.875 6.58594 4.88281 6.49219 4.89844 6.38281C4.91406 6.27344 4.94531 6.1875 4.99219 6.125C5.11719 6.01562 5.28125 5.9375 5.48438 5.89062C5.70312 5.82812 5.92969 5.78906 6.16406 5.77344C6.41406 5.74219 6.65625 5.71875 6.89062 5.70312C7.14062 5.67188 7.36719 5.61719 7.57031 5.53906C7.74219 5.47656 7.94531 5.39844 8.17969 5.30469C8.41406 5.19531 8.65625 5.09375 8.90625 5C9.17188 4.89062 9.4375 4.79688 9.70312 4.71875C9.96875 4.64062 10.2109 4.58594 10.4297 4.55469C10.4766 4.55469 10.5391 4.57031 10.6172 4.60156C10.7109 4.63281 10.8047 4.67188 10.8984 4.71875C10.9922 4.76562 11.0703 4.82031 11.1328 4.88281C11.1953 4.92969 11.2266 4.97656 11.2266 5.02344C11.2266 5.36719 11.1328 5.60938 10.9453 5.75C10.7578 5.875 10.5156 6.03125 10.2188 6.21875C10.2656 6.84375 10.2422 7.46875 10.1484 8.09375C10.0703 8.71875 10.0312 9.34375 10.0312 9.96875C10.0312 10.7188 10.0469 11.4844 10.0781 12.2656C10.1094 13.0469 10.1875 13.8047 10.3125 14.5391C10.3281 14.5703 10.3516 14.6484 10.3828 14.7734C10.4141 14.9141 10.4453 15.0547 10.4766 15.1953C10.5234 15.3359 10.5625 15.4688 10.5938 15.5938C10.625 15.7188 10.6406 15.7969 10.6406 15.8281V15.875C10.6406 16.0938 10.5547 16.3047 10.3828 16.5078C10.2266 16.7266 10.0391 16.8359 9.82031 16.8359C9.58594 16.8359 9.35938 16.7578 9.14062 16.6016C8.9375 16.4453 8.8125 16.2578 8.76562 16.0391ZM12.2578 13.1094C12.2578 12.8906 12.3359 12.6875 12.4922 12.5C12.6641 12.3125 12.8594 12.2188 13.0781 12.2188C13.3438 12.2188 13.5547 12.2891 13.7109 12.4297C13.8828 12.5703 14.0469 12.7266 14.2031 12.8984V12.9688C14.2031 13.2344 14.1094 13.4766 13.9219 13.6953C13.75 13.8984 13.5156 14 13.2188 14C13.0156 14 12.8047 13.9062 12.5859 13.7188C12.3672 13.5312 12.2578 13.3281 12.2578 13.1094Z" fill="#6D0632"/>
</svg>
