<svg width="56" height="56" viewBox="0 0 56 56" fill="none" xmlns="http://www.w3.org/2000/svg">
<g clip-path="url(#clip0_536_100)">
<path d="M39.9273 14H16.0672C14.9242 14 14 14.9023 14 16.018V39.9766C14 41.0922 14.9242 42 16.0672 42H39.9273C41.0703 42 42 41.0922 42 39.982V16.018C42 14.9023 41.0703 14 39.9273 14ZM22.307 37.8602H18.1508V24.4945H22.307V37.8602ZM20.2289 22.6734C18.8945 22.6734 17.8172 21.5961 17.8172 20.2672C17.8172 18.9383 18.8945 17.8609 20.2289 17.8609C21.5578 17.8609 22.6352 18.9383 22.6352 20.2672C22.6352 21.5906 21.5578 22.6734 20.2289 22.6734ZM37.8602 37.8602H33.7094V31.3633C33.7094 29.8156 33.682 27.8195 31.5492 27.8195C29.3891 27.8195 29.0609 29.5094 29.0609 31.2539V37.8602H24.9156V24.4945H28.8969V26.3211H28.9516C29.5039 25.2711 30.8602 24.1609 32.8781 24.1609C37.0836 24.1609 37.8602 26.9281 37.8602 30.5266V37.8602Z" fill="#14142B"/>
</g>
<circle cx="28" cy="28" r="27.5" stroke="#14142B"/>
<defs>
<clipPath id="clip0_536_100">
<rect width="28" height="28" fill="white" transform="translate(14 14)"/>
</clipPath>
</defs>
</svg>
