<svg width="56" height="56" viewBox="0 0 56 56" fill="none" xmlns="http://www.w3.org/2000/svg">
<circle cx="28" cy="28" r="27.5" stroke="#14142B"/>
<g clip-path="url(#clip0_536_115)">
<path d="M21.8969 19.8679C26.2584 19.8679 29.7937 23.428 29.7937 27.819C29.7937 32.2102 26.2581 35.77 21.8969 35.77C17.5359 35.77 14 32.2102 14 27.819C14 23.4281 17.5355 19.8679 21.8969 19.8679ZM34.5078 20.3336C36.6885 20.3336 38.4564 23.6847 38.4564 27.819H38.4567C38.4567 31.9524 36.6889 35.3045 34.5082 35.3045C32.3276 35.3045 30.5597 31.9524 30.5597 27.819C30.5597 23.6858 32.3272 20.3336 34.5079 20.3336H34.5078ZM40.6113 21.1134C41.3781 21.1134 42 24.1156 42 27.8192C42 31.5215 41.3783 34.5249 40.6113 34.5249C39.8442 34.5249 39.2229 31.5224 39.2229 27.8192C39.2229 24.1158 39.8445 21.1134 40.6113 21.1134Z" fill="#14142B"/>
</g>
<defs>
<clipPath id="clip0_536_115">
<rect width="28" height="15.9712" fill="white" transform="translate(14 19.8334)"/>
</clipPath>
</defs>
</svg>
